<mxfile host="app.diagrams.net" modified="2021-03-20T17:14:56.241Z" agent="5.0 (Windows NT 10.0; WOW64) AppleWebKit/537.36 (KHTML, like Gecko) Chrome/78.0.3904.108 Safari/537.36" etag="QHyUFdii0QXWuEb_sJsi" version="14.4.8" type="github">
  <diagram id="dh1iSAnI9LNPIimuFHRk" name="第 1 页">
    <mxGraphModel dx="1422" dy="1903" grid="1" gridSize="10" guides="1" tooltips="1" connect="1" arrows="1" fold="1" page="1" pageScale="1" pageWidth="827" pageHeight="1169" math="0" shadow="0">
      <root>
        <mxCell id="0" />
        <mxCell id="1" parent="0" />
        <mxCell id="u6yMv0zxOhqang4DAun9-123" value="" style="html=1;verticalAlign=bottom;endArrow=open;dashed=1;endSize=8;exitX=0;exitY=0.95;" parent="1" source="u6yMv0zxOhqang4DAun9-121" edge="1">
          <mxGeometry relative="1" as="geometry">
            <mxPoint x="524.67" y="609" as="targetPoint" />
          </mxGeometry>
        </mxCell>
        <mxCell id="Or9v4SIIAj_S2g1zX2Sr-3" value="浏览器" style="shape=umlLifeline;perimeter=lifelinePerimeter;whiteSpace=wrap;html=1;container=0;collapsible=0;recursiveResize=0;outlineConnect=0;" parent="1" vertex="1">
          <mxGeometry x="70.33" y="-30" width="99.67" height="1020" as="geometry" />
        </mxCell>
        <mxCell id="Or9v4SIIAj_S2g1zX2Sr-7" value="Nginx" style="shape=umlLifeline;perimeter=lifelinePerimeter;whiteSpace=wrap;html=1;container=0;collapsible=0;recursiveResize=0;outlineConnect=0;" parent="1" vertex="1">
          <mxGeometry x="200" y="-30" width="100" height="1020" as="geometry" />
        </mxCell>
        <mxCell id="Or9v4SIIAj_S2g1zX2Sr-10" value="三方系统&lt;br&gt;鉴权接口" style="shape=umlLifeline;perimeter=lifelinePerimeter;whiteSpace=wrap;html=1;container=0;collapsible=0;recursiveResize=0;outlineConnect=0;" parent="1" vertex="1">
          <mxGeometry x="729.67" y="-30" width="100" height="1020" as="geometry" />
        </mxCell>
        <mxCell id="u6yMv0zxOhqang4DAun9-16" value="在登录页面，选择通过三方系统登录" style="html=1;verticalAlign=bottom;endArrow=block;" parent="1" edge="1">
          <mxGeometry relative="1" as="geometry">
            <mxPoint x="125" y="270" as="sourcePoint" />
            <mxPoint x="385" y="270" as="targetPoint" />
          </mxGeometry>
        </mxCell>
        <mxCell id="1i8qNWAaKCdEuC1kmcj0-10" value="调用外部鉴权接口" style="edgeLabel;html=1;align=center;verticalAlign=middle;resizable=0;points=[];" vertex="1" connectable="0" parent="u6yMv0zxOhqang4DAun9-16">
          <mxGeometry x="0.2231" y="-1" relative="1" as="geometry">
            <mxPoint x="-34" y="9" as="offset" />
          </mxGeometry>
        </mxCell>
        <mxCell id="u6yMv0zxOhqang4DAun9-53" value="System1&lt;br&gt;Gateway" style="shape=umlLifeline;perimeter=lifelinePerimeter;whiteSpace=wrap;html=1;container=0;collapsible=0;recursiveResize=0;outlineConnect=0;fillColor=#CCFF99;" parent="1" vertex="1">
          <mxGeometry x="340" y="-30" width="100" height="1020" as="geometry" />
        </mxCell>
        <mxCell id="u6yMv0zxOhqang4DAun9-59" value="三方鉴权接口" style="shape=umlLifeline;perimeter=lifelinePerimeter;whiteSpace=wrap;html=1;container=0;collapsible=0;recursiveResize=0;outlineConnect=0;fillColor=#CCFF99;" parent="1" vertex="1">
          <mxGeometry x="470" y="-30" width="100" height="1020" as="geometry" />
        </mxCell>
        <mxCell id="u6yMv0zxOhqang4DAun9-90" value="调用&lt;br&gt;三方鉴权接口" style="html=1;verticalAlign=bottom;endArrow=block;entryX=0;entryY=0;entryDx=0;entryDy=0;entryPerimeter=0;" parent="1" edge="1" target="u6yMv0zxOhqang4DAun9-89">
          <mxGeometry relative="1" as="geometry">
            <mxPoint x="389.5" y="320" as="sourcePoint" />
            <mxPoint x="490" y="320" as="targetPoint" />
          </mxGeometry>
        </mxCell>
        <mxCell id="u6yMv0zxOhqang4DAun9-105" value="System1&lt;br&gt;用户系统" style="shape=umlLifeline;perimeter=lifelinePerimeter;whiteSpace=wrap;html=1;container=0;collapsible=0;recursiveResize=0;outlineConnect=0;fillColor=#CCFF99;" parent="1" vertex="1">
          <mxGeometry x="599.67" y="-30" width="100" height="1020" as="geometry" />
        </mxCell>
        <mxCell id="u6yMv0zxOhqang4DAun9-114" value="&lt;span style=&quot;font-size: 12px ; background-color: rgb(248 , 249 , 250)&quot;&gt;查询用户是否存在&lt;/span&gt;" style="html=1;verticalAlign=bottom;endArrow=block;entryX=0;entryY=0;" parent="1" target="u6yMv0zxOhqang4DAun9-113" edge="1">
          <mxGeometry relative="1" as="geometry">
            <mxPoint x="519.67" y="490" as="sourcePoint" />
          </mxGeometry>
        </mxCell>
        <mxCell id="u6yMv0zxOhqang4DAun9-122" value="新增用户接口" style="html=1;verticalAlign=bottom;endArrow=block;entryX=0;entryY=0;" parent="1" target="u6yMv0zxOhqang4DAun9-121" edge="1">
          <mxGeometry relative="1" as="geometry">
            <mxPoint x="519.67" y="580" as="sourcePoint" />
          </mxGeometry>
        </mxCell>
        <mxCell id="u6yMv0zxOhqang4DAun9-115" value="" style="html=1;verticalAlign=bottom;endArrow=open;dashed=1;endSize=8;exitX=0;exitY=0.95;" parent="1" source="u6yMv0zxOhqang4DAun9-113" edge="1">
          <mxGeometry relative="1" as="geometry">
            <mxPoint x="524.67" y="519" as="targetPoint" />
          </mxGeometry>
        </mxCell>
        <mxCell id="u6yMv0zxOhqang4DAun9-139" value="Gateway三方鉴权接口" style="html=1;verticalAlign=bottom;endArrow=open;dashed=1;endSize=8;exitX=1;exitY=0.9;exitDx=0;exitDy=0;exitPerimeter=0;entryX=0.9;entryY=0.04;entryDx=0;entryDy=0;entryPerimeter=0;" parent="1" source="u6yMv0zxOhqang4DAun9-137" target="tfi55ZKblpoJ1w2pQm7T-1" edge="1">
          <mxGeometry relative="1" as="geometry">
            <mxPoint x="610" y="698" as="targetPoint" />
            <mxPoint x="410" y="698" as="sourcePoint" />
          </mxGeometry>
        </mxCell>
        <mxCell id="u6yMv0zxOhqang4DAun9-143" value="&lt;span style=&quot;font-size: 11px ; background-color: rgb(255 , 255 , 255)&quot;&gt;返回&lt;/span&gt;鉴权成功" style="text;html=1;align=center;verticalAlign=middle;resizable=0;points=[];autosize=1;" parent="1" vertex="1">
          <mxGeometry x="210.33000000000004" y="710" width="90" height="20" as="geometry" />
        </mxCell>
        <mxCell id="u6yMv0zxOhqang4DAun9-89" value="判断，是调用HTTP请求鉴权&lt;br&gt;根据系统名&lt;br&gt;从配置获取三方鉴权接口URL" style="html=1;points=[];perimeter=orthogonalPerimeter;fillColor=#FFFFFF;" parent="1" vertex="1">
          <mxGeometry x="515" y="320" width="10" height="70" as="geometry" />
        </mxCell>
        <mxCell id="u6yMv0zxOhqang4DAun9-116" value="用户不存在&lt;br&gt;则新增用户" style="html=1;points=[];perimeter=orthogonalPerimeter;fillColor=#FFFFFF;" parent="1" vertex="1">
          <mxGeometry x="515" y="520" width="10" height="60" as="geometry" />
        </mxCell>
        <mxCell id="u6yMv0zxOhqang4DAun9-134" value="" style="html=1;points=[];perimeter=orthogonalPerimeter;fillColor=#FFFFFF;" parent="1" vertex="1">
          <mxGeometry x="515" y="610" width="10" height="50" as="geometry" />
        </mxCell>
        <mxCell id="u6yMv0zxOhqang4DAun9-136" value="返回Gateway&lt;br&gt;鉴权成功" style="html=1;verticalAlign=bottom;endArrow=open;dashed=1;endSize=8;" parent="1" source="u6yMv0zxOhqang4DAun9-134" target="u6yMv0zxOhqang4DAun9-137" edge="1">
          <mxGeometry x="700" y="-500" as="geometry">
            <mxPoint x="420" y="667" as="targetPoint" />
            <mxPoint x="690" y="667" as="sourcePoint" />
          </mxGeometry>
        </mxCell>
        <mxCell id="u6yMv0zxOhqang4DAun9-137" value="" style="html=1;points=[];perimeter=orthogonalPerimeter;fillColor=#FFFFFF;" parent="1" vertex="1">
          <mxGeometry x="385" y="660" width="10" height="50" as="geometry" />
        </mxCell>
        <mxCell id="u6yMv0zxOhqang4DAun9-113" value="" style="html=1;points=[];perimeter=orthogonalPerimeter;fillColor=#FFFFFF;" parent="1" vertex="1">
          <mxGeometry x="644.67" y="490" width="10" height="30" as="geometry" />
        </mxCell>
        <mxCell id="u6yMv0zxOhqang4DAun9-121" value="" style="html=1;points=[];perimeter=orthogonalPerimeter;fillColor=#FFFFFF;" parent="1" vertex="1">
          <mxGeometry x="644.67" y="580" width="10" height="30" as="geometry" />
        </mxCell>
        <mxCell id="8rMJmTV3KKsouPYQTct0-5" value="" style="html=1;points=[];perimeter=orthogonalPerimeter;" parent="1" vertex="1">
          <mxGeometry x="245" y="50" width="10" height="40" as="geometry" />
        </mxCell>
        <mxCell id="8rMJmTV3KKsouPYQTct0-6" value="System 1 登录页面" style="html=1;verticalAlign=bottom;endArrow=block;entryX=0;entryY=0;" parent="1" source="Or9v4SIIAj_S2g1zX2Sr-3" target="8rMJmTV3KKsouPYQTct0-5" edge="1">
          <mxGeometry relative="1" as="geometry">
            <mxPoint x="175" y="50" as="sourcePoint" />
          </mxGeometry>
        </mxCell>
        <mxCell id="8rMJmTV3KKsouPYQTct0-7" value="Vue App" style="html=1;verticalAlign=bottom;endArrow=open;dashed=1;endSize=8;exitX=0;exitY=0.95;" parent="1" source="8rMJmTV3KKsouPYQTct0-5" target="Or9v4SIIAj_S2g1zX2Sr-3" edge="1">
          <mxGeometry relative="1" as="geometry">
            <mxPoint x="175" y="126" as="targetPoint" />
          </mxGeometry>
        </mxCell>
        <mxCell id="8rMJmTV3KKsouPYQTct0-8" value="没有session&lt;br&gt;获取用户信息失败" style="html=1;points=[];perimeter=orthogonalPerimeter;" parent="1" vertex="1">
          <mxGeometry x="385" y="160" width="10" height="50" as="geometry" />
        </mxCell>
        <mxCell id="8rMJmTV3KKsouPYQTct0-9" value="前端路由&lt;br&gt;登录页面前的拦截器中&lt;br&gt;通过sessionID&lt;br&gt;到Gateway获取用户信息" style="html=1;verticalAlign=bottom;endArrow=block;entryX=0;entryY=0;" parent="1" source="Or9v4SIIAj_S2g1zX2Sr-3" target="8rMJmTV3KKsouPYQTct0-8" edge="1">
          <mxGeometry relative="1" as="geometry">
            <mxPoint x="665" y="90" as="sourcePoint" />
          </mxGeometry>
        </mxCell>
        <mxCell id="8rMJmTV3KKsouPYQTct0-10" value="" style="html=1;verticalAlign=bottom;endArrow=open;dashed=1;endSize=8;exitX=0;exitY=0.95;" parent="1" source="8rMJmTV3KKsouPYQTct0-8" edge="1">
          <mxGeometry relative="1" as="geometry">
            <mxPoint x="125" y="208" as="targetPoint" />
          </mxGeometry>
        </mxCell>
        <mxCell id="8rMJmTV3KKsouPYQTct0-11" value="获取用户信息失败&lt;br&gt;路由到登录页面" style="html=1;points=[];perimeter=orthogonalPerimeter;" parent="1" vertex="1">
          <mxGeometry x="115.33" y="200" width="10" height="70" as="geometry" />
        </mxCell>
        <mxCell id="8rMJmTV3KKsouPYQTct0-25" value="有session" style="html=1;points=[];perimeter=orthogonalPerimeter;" parent="1" vertex="1">
          <mxGeometry x="385.33000000000004" y="820.0000000000002" width="10" height="60" as="geometry" />
        </mxCell>
        <mxCell id="8rMJmTV3KKsouPYQTct0-26" value="获取用户信息" style="html=1;verticalAlign=bottom;endArrow=block;entryX=0.167;entryY=0.017;entryDx=0;entryDy=0;entryPerimeter=0;exitX=1;exitY=1;exitDx=0;exitDy=0;exitPerimeter=0;" parent="1" source="tfi55ZKblpoJ1w2pQm7T-1" target="8rMJmTV3KKsouPYQTct0-25" edge="1">
          <mxGeometry relative="1" as="geometry">
            <mxPoint x="170.33" y="821.2" as="sourcePoint" />
            <mxPoint x="670.33" y="820.0000000000002" as="targetPoint" />
          </mxGeometry>
        </mxCell>
        <mxCell id="8rMJmTV3KKsouPYQTct0-27" value="返回用户信息" style="html=1;verticalAlign=bottom;endArrow=open;dashed=1;endSize=8;entryX=0.967;entryY=0.057;entryDx=0;entryDy=0;entryPerimeter=0;" parent="1" source="8rMJmTV3KKsouPYQTct0-25" target="8rMJmTV3KKsouPYQTct0-28" edge="1">
          <mxGeometry relative="1" as="geometry">
            <mxPoint x="160.33" y="872.9999999999998" as="targetPoint" />
            <mxPoint x="720.33" y="873.9999999999998" as="sourcePoint" />
          </mxGeometry>
        </mxCell>
        <mxCell id="8rMJmTV3KKsouPYQTct0-28" value="获取用户信息成功&lt;br&gt;拦截器直接路由到首页" style="html=1;points=[];perimeter=orthogonalPerimeter;" parent="1" vertex="1">
          <mxGeometry x="115.66" y="869.9999999999998" width="10" height="70" as="geometry" />
        </mxCell>
        <mxCell id="tfi55ZKblpoJ1w2pQm7T-1" value="登录页前的拦截器中&lt;br&gt;如果Gateway鉴权失败&lt;br&gt;则调用一下登出接口&lt;br&gt;然后渲染登录页&lt;br&gt;&lt;br&gt;否则请求用户信息" style="html=1;points=[];perimeter=orthogonalPerimeter;" parent="1" vertex="1">
          <mxGeometry x="115.33" y="700" width="10" height="120" as="geometry" />
        </mxCell>
        <mxCell id="3CqKeIGA3ldGCkDwYFLd-6" value="" style="html=1;verticalAlign=bottom;endArrow=block;entryX=0;entryY=0;" parent="1" edge="1">
          <mxGeometry relative="1" as="geometry">
            <mxPoint x="525" y="340" as="sourcePoint" />
            <mxPoint x="525" y="340" as="targetPoint" />
          </mxGeometry>
        </mxCell>
        <mxCell id="5QezqIRn7u9YzMCtvwNX-16" value="" style="html=1;points=[];perimeter=orthogonalPerimeter;" parent="1" vertex="1">
          <mxGeometry x="385.33" y="270" width="10" height="50" as="geometry" />
        </mxCell>
        <mxCell id="1i8qNWAaKCdEuC1kmcj0-4" value="" style="html=1;points=[];perimeter=orthogonalPerimeter;fillColor=#FFFFFF;" vertex="1" parent="1">
          <mxGeometry x="775" y="390" width="10" height="50" as="geometry" />
        </mxCell>
        <mxCell id="1i8qNWAaKCdEuC1kmcj0-5" value="调用三方鉴权接口" style="html=1;verticalAlign=bottom;endArrow=block;entryX=0;entryY=0;exitX=1;exitY=1;exitDx=0;exitDy=0;exitPerimeter=0;" edge="1" target="1i8qNWAaKCdEuC1kmcj0-4" parent="1" source="u6yMv0zxOhqang4DAun9-89">
          <mxGeometry relative="1" as="geometry">
            <mxPoint x="705" y="390" as="sourcePoint" />
          </mxGeometry>
        </mxCell>
        <mxCell id="1i8qNWAaKCdEuC1kmcj0-6" value="鉴权成功" style="html=1;verticalAlign=bottom;endArrow=open;dashed=1;endSize=8;exitX=0;exitY=0.95;entryX=1;entryY=0.133;entryDx=0;entryDy=0;entryPerimeter=0;" edge="1" source="1i8qNWAaKCdEuC1kmcj0-4" parent="1" target="1i8qNWAaKCdEuC1kmcj0-7">
          <mxGeometry relative="1" as="geometry">
            <mxPoint x="580" y="430" as="targetPoint" />
          </mxGeometry>
        </mxCell>
        <mxCell id="1i8qNWAaKCdEuC1kmcj0-7" value="" style="html=1;points=[];perimeter=orthogonalPerimeter;fillColor=#FFFFFF;" vertex="1" parent="1">
          <mxGeometry x="515" y="430" width="10" height="60" as="geometry" />
        </mxCell>
      </root>
    </mxGraphModel>
  </diagram>
</mxfile>
